<?xml version="1.0" encoding="utf-8" standalone="no"?>
<!DOCTYPE svg PUBLIC "-//W3C//DTD SVG 1.1//EN"
  "http://www.w3.org/Graphics/SVG/1.1/DTD/svg11.dtd">
<svg xmlns:xlink="http://www.w3.org/1999/xlink" width="671.14375pt" height="503.469375pt" viewBox="0 0 671.14375 503.469375" xmlns="http://www.w3.org/2000/svg" version="1.1">
 <metadata>
  <rdf:RDF xmlns:dc="http://purl.org/dc/elements/1.1/" xmlns:cc="http://creativecommons.org/ns#" xmlns:rdf="http://www.w3.org/1999/02/22-rdf-syntax-ns#">
   <cc:Work>
    <dc:type rdf:resource="http://purl.org/dc/dcmitype/StillImage"/>
    <dc:date>2026-06-08T19:41:33.320735</dc:date>
    <dc:format>image/svg+xml</dc:format>
    <dc:creator>
     <cc:Agent>
      <dc:title>Matplotlib v3.10.9, https://matplotlib.org/</dc:title>
     </cc:Agent>
    </dc:creator>
   </cc:Work>
  </rdf:RDF>
 </metadata>
 <defs>
  <style type="text/css">*{stroke-linejoin: round; stroke-linecap: butt}</style>
 </defs>
 <g id="figure_1">
  <g id="patch_1">
   <path d="M 0 503.469375 
L 671.14375 503.469375 
L 671.14375 0 
L 0 0 
z
" style="fill: #ffffff"/>
  </g>
  <g id="axes_1">
   <g id="patch_2">
    <path d="M 50.14375 223.993125 
L 663.94375 223.993125 
L 663.94375 22.393125 
L 50.14375 22.393125 
z
" style="fill: #ffffff"/>
   </g>
   <g id="matplotlib.axis_1">
    <g id="xtick_1">
     <g id="line2d_1">
      <defs>
       <path id="mb3253df26c" d="M 0 0 
L 0 3.5 
" style="stroke: #000000; stroke-width: 0.8"/>
      </defs>
      <g>
       <use xlink:href="#mb3253df26c" x="78.04375" y="223.993125" style="stroke: #000000; stroke-width: 0.8"/>
      </g>
     </g>
    </g>
    <g id="xtick_2">
     <g id="line2d_2">
      <g>
       <use xlink:href="#mb3253df26c" x="181.377083" y="223.993125" style="stroke: #000000; stroke-width: 0.8"/>
      </g>
     </g>
    </g>
    <g id="xtick_3">
     <g id="line2d_3">
      <g>
       <use xlink:href="#mb3253df26c" x="284.710417" y="223.993125" style="stroke: #000000; stroke-width: 0.8"/>
      </g>
     </g>
    </g>
    <g id="xtick_4">
     <g id="line2d_4">
      <g>
       <use xlink:href="#mb3253df26c" x="388.04375" y="223.993125" style="stroke: #000000; stroke-width: 0.8"/>
      </g>
     </g>
    </g>
    <g id="xtick_5">
     <g id="line2d_5">
      <g>
       <use xlink:href="#mb3253df26c" x="491.377083" y="223.993125" style="stroke: #000000; stroke-width: 0.8"/>
      </g>
     </g>
    </g>
    <g id="xtick_6">
     <g id="line2d_6">
      <g>
       <use xlink:href="#mb3253df26c" x="594.710417" y="223.993125" style="stroke: #000000; stroke-width: 0.8"/>
      </g>
     </g>
    </g>
   </g>
   <g id="matplotlib.axis_2">
    <g id="ytick_1">
     <g id="line2d_7">
      <defs>
       <path id="m33e2c41f72" d="M 0 0 
L -3.5 0 
" style="stroke: #000000; stroke-width: 0.8"/>
      </defs>
      <g>
       <use xlink:href="#m33e2c41f72" x="50.14375" y="214.829489" style="stroke: #000000; stroke-width: 0.8"/>
      </g>
     </g>
     <g id="text_1">
      <!-- 0.00 -->
      <g transform="translate(20.878125 218.628707) scale(0.1 -0.1)">
       <defs>
        <path id="DejaVuSans-30" d="M 2034 4250 
Q 1547 4250 1301 3770 
Q 1056 3291 1056 2328 
Q 1056 1369 1301 889 
Q 1547 409 2034 409 
Q 2525 409 2770 889 
Q 3016 1369 3016 2328 
Q 3016 3291 2770 3770 
Q 2525 4250 2034 4250 
z
M 2034 4750 
Q 2819 4750 3233 4129 
Q 3647 3509 3647 2328 
Q 3647 1150 3233 529 
Q 2819 -91 2034 -91 
Q 1250 -91 836 529 
Q 422 1150 422 2328 
Q 422 3509 836 4129 
Q 1250 4750 2034 4750 
z
" transform="scale(0.015625)"/>
        <path id="DejaVuSans-2e" d="M 684 794 
L 1344 794 
L 1344 0 
L 684 0 
L 684 794 
z
" transform="scale(0.015625)"/>
       </defs>
       <use xlink:href="#DejaVuSans-30"/>
       <use xlink:href="#DejaVuSans-2e" transform="translate(63.623047 0)"/>
       <use xlink:href="#DejaVuSans-30" transform="translate(95.410156 0)"/>
       <use xlink:href="#DejaVuSans-30" transform="translate(159.033203 0)"/>
      </g>
     </g>
    </g>
    <g id="ytick_2">
     <g id="line2d_8">
      <g>
       <use xlink:href="#m33e2c41f72" x="50.14375" y="189.777886" style="stroke: #000000; stroke-width: 0.8"/>
      </g>
     </g>
     <g id="text_2">
      <!-- 0.05 -->
      <g transform="translate(20.878125 193.577104) scale(0.1 -0.1)">
       <defs>
        <path id="DejaVuSans-35" d="M 691 4666 
L 3169 4666 
L 3169 4134 
L 1269 4134 
L 1269 2991 
Q 1406 3038 1543 3061 
Q 1681 3084 1819 3084 
Q 2600 3084 3056 2656 
Q 3513 2228 3513 1497 
Q 3513 744 3044 326 
Q 2575 -91 1722 -91 
Q 1428 -91 1123 -41 
Q 819 9 494 109 
L 494 744 
Q 775 591 1075 516 
Q 1375 441 1709 441 
Q 2250 441 2565 725 
Q 2881 1009 2881 1497 
Q 2881 1984 2565 2268 
Q 2250 2553 1709 2553 
Q 1456 2553 1204 2497 
Q 953 2441 691 2322 
L 691 4666 
z
" transform="scale(0.015625)"/>
       </defs>
       <use xlink:href="#DejaVuSans-30"/>
       <use xlink:href="#DejaVuSans-2e" transform="translate(63.623047 0)"/>
       <use xlink:href="#DejaVuSans-30" transform="translate(95.410156 0)"/>
       <use xlink:href="#DejaVuSans-35" transform="translate(159.033203 0)"/>
      </g>
     </g>
    </g>
    <g id="ytick_3">
     <g id="line2d_9">
      <g>
       <use xlink:href="#m33e2c41f72" x="50.14375" y="164.726282" style="stroke: #000000; stroke-width: 0.8"/>
      </g>
     </g>
     <g id="text_3">
      <!-- 0.10 -->
      <g transform="translate(20.878125 168.525501) scale(0.1 -0.1)">
       <defs>
        <path id="DejaVuSans-31" d="M 794 531 
L 1825 531 
L 1825 4091 
L 703 3866 
L 703 4441 
L 1819 4666 
L 2450 4666 
L 2450 531 
L 3481 531 
L 3481 0 
L 794 0 
L 794 531 
z
" transform="scale(0.015625)"/>
       </defs>
       <use xlink:href="#DejaVuSans-30"/>
       <use xlink:href="#DejaVuSans-2e" transform="translate(63.623047 0)"/>
       <use xlink:href="#DejaVuSans-31" transform="translate(95.410156 0)"/>
       <use xlink:href="#DejaVuSans-30" transform="translate(159.033203 0)"/>
      </g>
     </g>
    </g>
    <g id="ytick_4">
     <g id="line2d_10">
      <g>
       <use xlink:href="#m33e2c41f72" x="50.14375" y="139.674679" style="stroke: #000000; stroke-width: 0.8"/>
      </g>
     </g>
     <g id="text_4">
      <!-- 0.15 -->
      <g transform="translate(20.878125 143.473898) scale(0.1 -0.1)">
       <use xlink:href="#DejaVuSans-30"/>
       <use xlink:href="#DejaVuSans-2e" transform="translate(63.623047 0)"/>
       <use xlink:href="#DejaVuSans-31" transform="translate(95.410156 0)"/>
       <use xlink:href="#DejaVuSans-35" transform="translate(159.033203 0)"/>
      </g>
     </g>
    </g>
    <g id="ytick_5">
     <g id="line2d_11">
      <g>
       <use xlink:href="#m33e2c41f72" x="50.14375" y="114.623076" style="stroke: #000000; stroke-width: 0.8"/>
      </g>
     </g>
     <g id="text_5">
      <!-- 0.20 -->
      <g transform="translate(20.878125 118.422295) scale(0.1 -0.1)">
       <defs>
        <path id="DejaVuSans-32" d="M 1228 531 
L 3431 531 
L 3431 0 
L 469 0 
L 469 531 
Q 828 903 1448 1529 
Q 2069 2156 2228 2338 
Q 2531 2678 2651 2914 
Q 2772 3150 2772 3378 
Q 2772 3750 2511 3984 
Q 2250 4219 1831 4219 
Q 1534 4219 1204 4116 
Q 875 4013 500 3803 
L 500 4441 
Q 881 4594 1212 4672 
Q 1544 4750 1819 4750 
Q 2544 4750 2975 4387 
Q 3406 4025 3406 3419 
Q 3406 3131 3298 2873 
Q 3191 2616 2906 2266 
Q 2828 2175 2409 1742 
Q 1991 1309 1228 531 
z
" transform="scale(0.015625)"/>
       </defs>
       <use xlink:href="#DejaVuSans-30"/>
       <use xlink:href="#DejaVuSans-2e" transform="translate(63.623047 0)"/>
       <use xlink:href="#DejaVuSans-32" transform="translate(95.410156 0)"/>
       <use xlink:href="#DejaVuSans-30" transform="translate(159.033203 0)"/>
      </g>
     </g>
    </g>
    <g id="ytick_6">
     <g id="line2d_12">
      <g>
       <use xlink:href="#m33e2c41f72" x="50.14375" y="89.571473" style="stroke: #000000; stroke-width: 0.8"/>
      </g>
     </g>
     <g id="text_6">
      <!-- 0.25 -->
      <g transform="translate(20.878125 93.370692) scale(0.1 -0.1)">
       <use xlink:href="#DejaVuSans-30"/>
       <use xlink:href="#DejaVuSans-2e" transform="translate(63.623047 0)"/>
       <use xlink:href="#DejaVuSans-32" transform="translate(95.410156 0)"/>
       <use xlink:href="#DejaVuSans-35" transform="translate(159.033203 0)"/>
      </g>
     </g>
    </g>
    <g id="ytick_7">
     <g id="line2d_13">
      <g>
       <use xlink:href="#m33e2c41f72" x="50.14375" y="64.51987" style="stroke: #000000; stroke-width: 0.8"/>
      </g>
     </g>
     <g id="text_7">
      <!-- 0.30 -->
      <g transform="translate(20.878125 68.319089) scale(0.1 -0.1)">
       <defs>
        <path id="DejaVuSans-33" d="M 2597 2516 
Q 3050 2419 3304 2112 
Q 3559 1806 3559 1356 
Q 3559 666 3084 287 
Q 2609 -91 1734 -91 
Q 1441 -91 1130 -33 
Q 819 25 488 141 
L 488 750 
Q 750 597 1062 519 
Q 1375 441 1716 441 
Q 2309 441 2620 675 
Q 2931 909 2931 1356 
Q 2931 1769 2642 2001 
Q 2353 2234 1838 2234 
L 1294 2234 
L 1294 2753 
L 1863 2753 
Q 2328 2753 2575 2939 
Q 2822 3125 2822 3475 
Q 2822 3834 2567 4026 
Q 2313 4219 1838 4219 
Q 1578 4219 1281 4162 
Q 984 4106 628 3988 
L 628 4550 
Q 988 4650 1302 4700 
Q 1616 4750 1894 4750 
Q 2613 4750 3031 4423 
Q 3450 4097 3450 3541 
Q 3450 3153 3228 2886 
Q 3006 2619 2597 2516 
z
" transform="scale(0.015625)"/>
       </defs>
       <use xlink:href="#DejaVuSans-30"/>
       <use xlink:href="#DejaVuSans-2e" transform="translate(63.623047 0)"/>
       <use xlink:href="#DejaVuSans-33" transform="translate(95.410156 0)"/>
       <use xlink:href="#DejaVuSans-30" transform="translate(159.033203 0)"/>
      </g>
     </g>
    </g>
    <g id="ytick_8">
     <g id="line2d_14">
      <g>
       <use xlink:href="#m33e2c41f72" x="50.14375" y="39.468267" style="stroke: #000000; stroke-width: 0.8"/>
      </g>
     </g>
     <g id="text_8">
      <!-- 0.35 -->
      <g transform="translate(20.878125 43.267486) scale(0.1 -0.1)">
       <use xlink:href="#DejaVuSans-30"/>
       <use xlink:href="#DejaVuSans-2e" transform="translate(63.623047 0)"/>
       <use xlink:href="#DejaVuSans-33" transform="translate(95.410156 0)"/>
       <use xlink:href="#DejaVuSans-35" transform="translate(159.033203 0)"/>
      </g>
     </g>
    </g>
    <g id="text_9">
     <!-- people (billions) -->
     <g transform="translate(14.798437 163.197031) rotate(-90) scale(0.1 -0.1)">
      <defs>
       <path id="DejaVuSans-70" d="M 1159 525 
L 1159 -1331 
L 581 -1331 
L 581 3500 
L 1159 3500 
L 1159 2969 
Q 1341 3281 1617 3432 
Q 1894 3584 2278 3584 
Q 2916 3584 3314 3078 
Q 3713 2572 3713 1747 
Q 3713 922 3314 415 
Q 2916 -91 2278 -91 
Q 1894 -91 1617 61 
Q 1341 213 1159 525 
z
M 3116 1747 
Q 3116 2381 2855 2742 
Q 2594 3103 2138 3103 
Q 1681 3103 1420 2742 
Q 1159 2381 1159 1747 
Q 1159 1113 1420 752 
Q 1681 391 2138 391 
Q 2594 391 2855 752 
Q 3116 1113 3116 1747 
z
" transform="scale(0.015625)"/>
       <path id="DejaVuSans-65" d="M 3597 1894 
L 3597 1613 
L 953 1613 
Q 991 1019 1311 708 
Q 1631 397 2203 397 
Q 2534 397 2845 478 
Q 3156 559 3463 722 
L 3463 178 
Q 3153 47 2828 -22 
Q 2503 -91 2169 -91 
Q 1331 -91 842 396 
Q 353 884 353 1716 
Q 353 2575 817 3079 
Q 1281 3584 2069 3584 
Q 2775 3584 3186 3129 
Q 3597 2675 3597 1894 
z
M 3022 2063 
Q 3016 2534 2758 2815 
Q 2500 3097 2075 3097 
Q 1594 3097 1305 2825 
Q 1016 2553 972 2059 
L 3022 2063 
z
" transform="scale(0.015625)"/>
       <path id="DejaVuSans-6f" d="M 1959 3097 
Q 1497 3097 1228 2736 
Q 959 2375 959 1747 
Q 959 1119 1226 758 
Q 1494 397 1959 397 
Q 2419 397 2687 759 
Q 2956 1122 2956 1747 
Q 2956 2369 2687 2733 
Q 2419 3097 1959 3097 
z
M 1959 3584 
Q 2709 3584 3137 3096 
Q 3566 2609 3566 1747 
Q 3566 888 3137 398 
Q 2709 -91 1959 -91 
Q 1206 -91 779 398 
Q 353 888 353 1747 
Q 353 2609 779 3096 
Q 1206 3584 1959 3584 
z
" transform="scale(0.015625)"/>
       <path id="DejaVuSans-6c" d="M 603 4863 
L 1178 4863 
L 1178 0 
L 603 0 
L 603 4863 
z
" transform="scale(0.015625)"/>
       <path id="DejaVuSans-20" transform="scale(0.015625)"/>
       <path id="DejaVuSans-28" d="M 1984 4856 
Q 1566 4138 1362 3434 
Q 1159 2731 1159 2009 
Q 1159 1288 1364 580 
Q 1569 -128 1984 -844 
L 1484 -844 
Q 1016 -109 783 600 
Q 550 1309 550 2009 
Q 550 2706 781 3412 
Q 1013 4119 1484 4856 
L 1984 4856 
z
" transform="scale(0.015625)"/>
       <path id="DejaVuSans-62" d="M 3116 1747 
Q 3116 2381 2855 2742 
Q 2594 3103 2138 3103 
Q 1681 3103 1420 2742 
Q 1159 2381 1159 1747 
Q 1159 1113 1420 752 
Q 1681 391 2138 391 
Q 2594 391 2855 752 
Q 3116 1113 3116 1747 
z
M 1159 2969 
Q 1341 3281 1617 3432 
Q 1894 3584 2278 3584 
Q 2916 3584 3314 3078 
Q 3713 2572 3713 1747 
Q 3713 922 3314 415 
Q 2916 -91 2278 -91 
Q 1894 -91 1617 61 
Q 1341 213 1159 525 
L 1159 0 
L 581 0 
L 581 4863 
L 1159 4863 
L 1159 2969 
z
" transform="scale(0.015625)"/>
       <path id="DejaVuSans-69" d="M 603 3500 
L 1178 3500 
L 1178 0 
L 603 0 
L 603 3500 
z
M 603 4863 
L 1178 4863 
L 1178 4134 
L 603 4134 
L 603 4863 
z
" transform="scale(0.015625)"/>
       <path id="DejaVuSans-6e" d="M 3513 2113 
L 3513 0 
L 2938 0 
L 2938 2094 
Q 2938 2591 2744 2837 
Q 2550 3084 2163 3084 
Q 1697 3084 1428 2787 
Q 1159 2491 1159 1978 
L 1159 0 
L 581 0 
L 581 3500 
L 1159 3500 
L 1159 2956 
Q 1366 3272 1645 3428 
Q 1925 3584 2291 3584 
Q 2894 3584 3203 3211 
Q 3513 2838 3513 2113 
z
" transform="scale(0.015625)"/>
       <path id="DejaVuSans-73" d="M 2834 3397 
L 2834 2853 
Q 2591 2978 2328 3040 
Q 2066 3103 1784 3103 
Q 1356 3103 1142 2972 
Q 928 2841 928 2578 
Q 928 2378 1081 2264 
Q 1234 2150 1697 2047 
L 1894 2003 
Q 2506 1872 2764 1633 
Q 3022 1394 3022 966 
Q 3022 478 2636 193 
Q 2250 -91 1575 -91 
Q 1294 -91 989 -36 
Q 684 19 347 128 
L 347 722 
Q 666 556 975 473 
Q 1284 391 1588 391 
Q 1994 391 2212 530 
Q 2431 669 2431 922 
Q 2431 1156 2273 1281 
Q 2116 1406 1581 1522 
L 1381 1569 
Q 847 1681 609 1914 
Q 372 2147 372 2553 
Q 372 3047 722 3315 
Q 1072 3584 1716 3584 
Q 2034 3584 2315 3537 
Q 2597 3491 2834 3397 
z
" transform="scale(0.015625)"/>
       <path id="DejaVuSans-29" d="M 513 4856 
L 1013 4856 
Q 1481 4119 1714 3412 
Q 1947 2706 1947 2009 
Q 1947 1309 1714 600 
Q 1481 -109 1013 -844 
L 513 -844 
Q 928 -128 1133 580 
Q 1338 1288 1338 2009 
Q 1338 2731 1133 3434 
Q 928 4138 513 4856 
z
" transform="scale(0.015625)"/>
      </defs>
      <use xlink:href="#DejaVuSans-70"/>
      <use xlink:href="#DejaVuSans-65" transform="translate(63.476562 0)"/>
      <use xlink:href="#DejaVuSans-6f" transform="translate(125 0)"/>
      <use xlink:href="#DejaVuSans-70" transform="translate(186.181641 0)"/>
      <use xlink:href="#DejaVuSans-6c" transform="translate(249.658203 0)"/>
      <use xlink:href="#DejaVuSans-65" transform="translate(277.441406 0)"/>
      <use xlink:href="#DejaVuSans-20" transform="translate(338.964844 0)"/>
      <use xlink:href="#DejaVuSans-28" transform="translate(370.751953 0)"/>
      <use xlink:href="#DejaVuSans-62" transform="translate(409.765625 0)"/>
      <use xlink:href="#DejaVuSans-69" transform="translate(473.242188 0)"/>
      <use xlink:href="#DejaVuSans-6c" transform="translate(501.025391 0)"/>
      <use xlink:href="#DejaVuSans-6c" transform="translate(528.808594 0)"/>
      <use xlink:href="#DejaVuSans-69" transform="translate(556.591797 0)"/>
      <use xlink:href="#DejaVuSans-6f" transform="translate(584.375 0)"/>
      <use xlink:href="#DejaVuSans-6e" transform="translate(645.556641 0)"/>
      <use xlink:href="#DejaVuSans-73" transform="translate(708.935547 0)"/>
      <use xlink:href="#DejaVuSans-29" transform="translate(761.035156 0)"/>
     </g>
    </g>
   </g>
   <g id="line2d_15">
    <path d="M 78.04375 31.556761 
L 149.34375 31.666947 
L 165.877083 31.927002 
L 177.24375 32.298627 
L 185.510417 32.772093 
L 191.710417 33.327047 
L 196.877083 33.995417 
L 201.010417 34.720181 
L 205.14375 35.662006 
L 209.277083 36.869328 
L 212.377083 37.970397 
L 215.477083 39.256537 
L 218.577083 40.73202 
L 221.677083 42.402386 
L 225.810417 44.926772 
L 229.94375 47.777867 
L 234.077083 50.910843 
L 239.24375 55.141379 
L 246.477083 61.417256 
L 258.877083 72.528753 
L 267.14375 80.193163 
L 272.310417 85.297012 
L 276.44375 89.667816 
L 280.577083 94.381883 
L 284.710417 99.502258 
L 288.84375 105.064875 
L 292.977083 111.045355 
L 298.14375 118.951911 
L 306.410417 131.678042 
L 310.54375 137.592478 
L 313.64375 141.698255 
L 316.74375 145.499165 
L 319.84375 149.005237 
L 322.94375 152.237208 
L 327.077083 156.17246 
L 331.210417 159.740951 
L 335.34375 162.995998 
L 339.477083 165.958917 
L 343.610417 168.65223 
L 347.74375 171.077431 
L 351.877083 173.243402 
L 356.010417 175.158189 
L 360.14375 176.835064 
L 364.277083 178.294064 
L 369.44375 179.842023 
L 374.610417 181.125654 
L 379.777083 182.182795 
L 385.977083 183.203678 
L 392.177083 184.001422 
L 399.410417 184.709636 
L 407.677083 185.289631 
L 416.977083 185.719649 
L 429.377083 186.050398 
L 446.94375 186.265334 
L 477.94375 186.379786 
L 569.910417 186.42213 
L 636.04375 186.423882 
L 636.04375 186.423882 
" clip-path="url(#p0e7e6e22d1)" style="fill: none; stroke: #1f77b4; stroke-width: 2; stroke-linecap: square"/>
   </g>
   <g id="line2d_16">
    <path d="M 78.04375 214.829489 
L 170.010417 214.720623 
L 188.610417 214.506485 
L 198.94375 214.196058 
L 208.24375 213.692034 
L 219.610417 212.819454 
L 234.077083 211.696513 
L 241.310417 211.342364 
L 249.577083 211.162976 
L 269.210417 210.869283 
L 276.44375 210.458685 
L 283.677083 209.816903 
L 296.077083 208.595252 
L 300.210417 208.403256 
L 304.34375 208.436549 
L 308.477083 208.704227 
L 313.64375 209.290048 
L 326.04375 210.793316 
L 334.310417 211.49929 
L 350.84375 212.599435 
L 367.377083 213.521635 
L 380.810417 214.032322 
L 396.310417 214.398642 
L 416.977083 214.662243 
L 443.84375 214.789528 
L 515.14375 214.82766 
L 636.04375 214.82945 
L 636.04375 214.82945 
" clip-path="url(#p0e7e6e22d1)" style="fill: none; stroke: #9467bd; stroke-width: 2; stroke-linecap: square"/>
   </g>
   <g id="line2d_17">
    <path d="M 78.04375 214.829439 
L 166.910417 214.722732 
L 187.577083 214.497034 
L 197.910417 214.195292 
L 206.177083 213.738512 
L 213.410417 213.121046 
L 222.710417 212.067866 
L 239.24375 210.133988 
L 245.44375 209.659241 
L 252.677083 209.373096 
L 265.077083 209.215654 
L 272.310417 209.000506 
L 278.510417 208.573342 
L 283.677083 208.023177 
L 289.877083 207.146314 
L 300.210417 205.603334 
L 304.34375 205.249568 
L 307.44375 205.188538 
L 310.54375 205.328052 
L 313.64375 205.657758 
L 317.777083 206.330286 
L 331.210417 208.768209 
L 337.410417 209.595253 
L 346.710417 210.587734 
L 365.310417 212.31305 
L 376.677083 213.135217 
L 388.04375 213.72385 
L 401.477083 214.183018 
L 419.04375 214.536942 
L 440.74375 214.735003 
L 478.977083 214.815928 
L 636.04375 214.829428 
L 636.04375 214.829428 
" clip-path="url(#p0e7e6e22d1)" style="fill: none; stroke: #ff7f0e; stroke-width: 2; stroke-linecap: square"/>
   </g>
   <g id="line2d_18">
    <path d="M 78.04375 214.829489 
L 159.677083 214.719253 
L 176.210417 214.459198 
L 187.577083 214.087573 
L 195.84375 213.614107 
L 202.04375 213.059152 
L 207.210417 212.390783 
L 211.34375 211.666019 
L 215.477083 210.724194 
L 219.610417 209.516872 
L 222.710417 208.415803 
L 225.810417 207.129663 
L 228.910417 205.65418 
L 232.010417 203.983813 
L 236.14375 201.459428 
L 240.277083 198.608333 
L 244.410417 195.475357 
L 249.577083 191.244821 
L 256.810417 184.968944 
L 269.210417 173.857446 
L 277.477083 166.193037 
L 282.64375 161.089188 
L 286.777083 156.718384 
L 290.910417 152.004317 
L 295.04375 146.883942 
L 299.177083 141.321325 
L 303.310417 135.340845 
L 308.477083 127.434289 
L 316.74375 114.708158 
L 320.877083 108.793722 
L 323.977083 104.687945 
L 327.077083 100.887035 
L 330.177083 97.380963 
L 333.277083 94.148992 
L 337.410417 90.21374 
L 341.54375 86.645249 
L 345.677083 83.390202 
L 349.810417 80.427283 
L 353.94375 77.73397 
L 358.077083 75.308769 
L 362.210417 73.142798 
L 366.34375 71.228011 
L 370.477083 69.551136 
L 374.610417 68.092136 
L 379.777083 66.544176 
L 384.94375 65.260546 
L 390.110417 64.203405 
L 396.310417 63.182522 
L 402.510417 62.384778 
L 409.74375 61.676564 
L 418.010417 61.096569 
L 427.310417 60.666551 
L 439.710417 60.335802 
L 457.277083 60.120866 
L 488.277083 60.006413 
L 580.24375 59.96407 
L 636.04375 59.962418 
L 636.04375 59.962418 
" clip-path="url(#p0e7e6e22d1)" style="fill: none; stroke: #2ca02c; stroke-width: 2; stroke-linecap: square"/>
   </g>
   <g id="patch_3">
    <path d="M 50.14375 223.993125 
L 50.14375 22.393125 
" style="fill: none; stroke: #000000; stroke-width: 0.8; stroke-linejoin: miter; stroke-linecap: square"/>
   </g>
   <g id="patch_4">
    <path d="M 663.94375 223.993125 
L 663.94375 22.393125 
" style="fill: none; stroke: #000000; stroke-width: 0.8; stroke-linejoin: miter; stroke-linecap: square"/>
   </g>
   <g id="patch_5">
    <path d="M 50.14375 223.993125 
L 663.94375 223.993125 
" style="fill: none; stroke: #000000; stroke-width: 0.8; stroke-linejoin: miter; stroke-linecap: square"/>
   </g>
   <g id="patch_6">
    <path d="M 50.14375 22.393125 
L 663.94375 22.393125 
" style="fill: none; stroke: #000000; stroke-width: 0.8; stroke-linejoin: miter; stroke-linecap: square"/>
   </g>
   <g id="text_10">
    <!-- Global SEIR — 540 days, subsample 20, β=0.35, air top-1000, seed Shanghai -->
    <g transform="translate(124.300938 16.393125) scale(0.12 -0.12)">
     <defs>
      <path id="DejaVuSans-47" d="M 3809 666 
L 3809 1919 
L 2778 1919 
L 2778 2438 
L 4434 2438 
L 4434 434 
Q 4069 175 3628 42 
Q 3188 -91 2688 -91 
Q 1594 -91 976 548 
Q 359 1188 359 2328 
Q 359 3472 976 4111 
Q 1594 4750 2688 4750 
Q 3144 4750 3555 4637 
Q 3966 4525 4313 4306 
L 4313 3634 
Q 3963 3931 3569 4081 
Q 3175 4231 2741 4231 
Q 1884 4231 1454 3753 
Q 1025 3275 1025 2328 
Q 1025 1384 1454 906 
Q 1884 428 2741 428 
Q 3075 428 3337 486 
Q 3600 544 3809 666 
z
" transform="scale(0.015625)"/>
      <path id="DejaVuSans-61" d="M 2194 1759 
Q 1497 1759 1228 1600 
Q 959 1441 959 1056 
Q 959 750 1161 570 
Q 1363 391 1709 391 
Q 2188 391 2477 730 
Q 2766 1069 2766 1631 
L 2766 1759 
L 2194 1759 
z
M 3341 1997 
L 3341 0 
L 2766 0 
L 2766 531 
Q 2569 213 2275 61 
Q 1981 -91 1556 -91 
Q 1019 -91 701 211 
Q 384 513 384 1019 
Q 384 1609 779 1909 
Q 1175 2209 1959 2209 
L 2766 2209 
L 2766 2266 
Q 2766 2663 2505 2880 
Q 2244 3097 1772 3097 
Q 1472 3097 1187 3025 
Q 903 2953 641 2809 
L 641 3341 
Q 956 3463 1253 3523 
Q 1550 3584 1831 3584 
Q 2591 3584 2966 3190 
Q 3341 2797 3341 1997 
z
" transform="scale(0.015625)"/>
      <path id="DejaVuSans-53" d="M 3425 4513 
L 3425 3897 
Q 3066 4069 2747 4153 
Q 2428 4238 2131 4238 
Q 1616 4238 1336 4038 
Q 1056 3838 1056 3469 
Q 1056 3159 1242 3001 
Q 1428 2844 1947 2747 
L 2328 2669 
Q 3034 2534 3370 2195 
Q 3706 1856 3706 1288 
Q 3706 609 3251 259 
Q 2797 -91 1919 -91 
Q 1588 -91 1214 -16 
Q 841 59 441 206 
L 441 856 
Q 825 641 1194 531 
Q 1563 422 1919 422 
Q 2459 422 2753 634 
Q 3047 847 3047 1241 
Q 3047 1584 2836 1778 
Q 2625 1972 2144 2069 
L 1759 2144 
Q 1053 2284 737 2584 
Q 422 2884 422 3419 
Q 422 4038 858 4394 
Q 1294 4750 2059 4750 
Q 2388 4750 2728 4690 
Q 3069 4631 3425 4513 
z
" transform="scale(0.015625)"/>
      <path id="DejaVuSans-45" d="M 628 4666 
L 3578 4666 
L 3578 4134 
L 1259 4134 
L 1259 2753 
L 3481 2753 
L 3481 2222 
L 1259 2222 
L 1259 531 
L 3634 531 
L 3634 0 
L 628 0 
L 628 4666 
z
" transform="scale(0.015625)"/>
      <path id="DejaVuSans-49" d="M 628 4666 
L 1259 4666 
L 1259 0 
L 628 0 
L 628 4666 
z
" transform="scale(0.015625)"/>
      <path id="DejaVuSans-52" d="M 2841 2188 
Q 3044 2119 3236 1894 
Q 3428 1669 3622 1275 
L 4263 0 
L 3584 0 
L 2988 1197 
Q 2756 1666 2539 1819 
Q 2322 1972 1947 1972 
L 1259 1972 
L 1259 0 
L 628 0 
L 628 4666 
L 2053 4666 
Q 2853 4666 3247 4331 
Q 3641 3997 3641 3322 
Q 3641 2881 3436 2590 
Q 3231 2300 2841 2188 
z
M 1259 4147 
L 1259 2491 
L 2053 2491 
Q 2509 2491 2742 2702 
Q 2975 2913 2975 3322 
Q 2975 3731 2742 3939 
Q 2509 4147 2053 4147 
L 1259 4147 
z
" transform="scale(0.015625)"/>
      <path id="DejaVuSans-2014" d="M 313 1978 
L 6088 1978 
L 6088 1528 
L 313 1528 
L 313 1978 
z
" transform="scale(0.015625)"/>
      <path id="DejaVuSans-34" d="M 2419 4116 
L 825 1625 
L 2419 1625 
L 2419 4116 
z
M 2253 4666 
L 3047 4666 
L 3047 1625 
L 3713 1625 
L 3713 1100 
L 3047 1100 
L 3047 0 
L 2419 0 
L 2419 1100 
L 313 1100 
L 313 1709 
L 2253 4666 
z
" transform="scale(0.015625)"/>
      <path id="DejaVuSans-64" d="M 2906 2969 
L 2906 4863 
L 3481 4863 
L 3481 0 
L 2906 0 
L 2906 525 
Q 2725 213 2448 61 
Q 2172 -91 1784 -91 
Q 1150 -91 751 415 
Q 353 922 353 1747 
Q 353 2572 751 3078 
Q 1150 3584 1784 3584 
Q 2172 3584 2448 3432 
Q 2725 3281 2906 2969 
z
M 947 1747 
Q 947 1113 1208 752 
Q 1469 391 1925 391 
Q 2381 391 2643 752 
Q 2906 1113 2906 1747 
Q 2906 2381 2643 2742 
Q 2381 3103 1925 3103 
Q 1469 3103 1208 2742 
Q 947 2381 947 1747 
z
" transform="scale(0.015625)"/>
      <path id="DejaVuSans-79" d="M 2059 -325 
Q 1816 -950 1584 -1140 
Q 1353 -1331 966 -1331 
L 506 -1331 
L 506 -850 
L 844 -850 
Q 1081 -850 1212 -737 
Q 1344 -625 1503 -206 
L 1606 56 
L 191 3500 
L 800 3500 
L 1894 763 
L 2988 3500 
L 3597 3500 
L 2059 -325 
z
" transform="scale(0.015625)"/>
      <path id="DejaVuSans-2c" d="M 750 794 
L 1409 794 
L 1409 256 
L 897 -744 
L 494 -744 
L 750 256 
L 750 794 
z
" transform="scale(0.015625)"/>
      <path id="DejaVuSans-75" d="M 544 1381 
L 544 3500 
L 1119 3500 
L 1119 1403 
Q 1119 906 1312 657 
Q 1506 409 1894 409 
Q 2359 409 2629 706 
Q 2900 1003 2900 1516 
L 2900 3500 
L 3475 3500 
L 3475 0 
L 2900 0 
L 2900 538 
Q 2691 219 2414 64 
Q 2138 -91 1772 -91 
Q 1169 -91 856 284 
Q 544 659 544 1381 
z
M 1991 3584 
L 1991 3584 
z
" transform="scale(0.015625)"/>
      <path id="DejaVuSans-6d" d="M 3328 2828 
Q 3544 3216 3844 3400 
Q 4144 3584 4550 3584 
Q 5097 3584 5394 3201 
Q 5691 2819 5691 2113 
L 5691 0 
L 5113 0 
L 5113 2094 
Q 5113 2597 4934 2840 
Q 4756 3084 4391 3084 
Q 3944 3084 3684 2787 
Q 3425 2491 3425 1978 
L 3425 0 
L 2847 0 
L 2847 2094 
Q 2847 2600 2669 2842 
Q 2491 3084 2119 3084 
Q 1678 3084 1418 2786 
Q 1159 2488 1159 1978 
L 1159 0 
L 581 0 
L 581 3500 
L 1159 3500 
L 1159 2956 
Q 1356 3278 1631 3431 
Q 1906 3584 2284 3584 
Q 2666 3584 2933 3390 
Q 3200 3197 3328 2828 
z
" transform="scale(0.015625)"/>
      <path id="DejaVuSans-3b2" d="M 1178 216 
L 1178 -1331 
L 600 -1331 
L 600 3478 
Q 600 4903 1931 4903 
Q 3288 4903 3288 3700 
Q 3288 2844 2750 2531 
Q 3625 2250 3625 1416 
Q 3625 -66 2119 -66 
Q 1456 -66 1178 216 
z
M 1178 966 
Q 1525 425 2141 425 
Q 3041 425 3041 1406 
Q 3041 2288 1591 2219 
L 1591 2750 
Q 2725 2750 2725 3750 
Q 2725 4434 1994 4434 
Q 1178 4434 1178 3459 
L 1178 966 
z
" transform="scale(0.015625)"/>
      <path id="DejaVuSans-3d" d="M 678 2906 
L 4684 2906 
L 4684 2381 
L 678 2381 
L 678 2906 
z
M 678 1631 
L 4684 1631 
L 4684 1100 
L 678 1100 
L 678 1631 
z
" transform="scale(0.015625)"/>
      <path id="DejaVuSans-72" d="M 2631 2963 
Q 2534 3019 2420 3045 
Q 2306 3072 2169 3072 
Q 1681 3072 1420 2755 
Q 1159 2438 1159 1844 
L 1159 0 
L 581 0 
L 581 3500 
L 1159 3500 
L 1159 2956 
Q 1341 3275 1631 3429 
Q 1922 3584 2338 3584 
Q 2397 3584 2469 3576 
Q 2541 3569 2628 3553 
L 2631 2963 
z
" transform="scale(0.015625)"/>
      <path id="DejaVuSans-74" d="M 1172 4494 
L 1172 3500 
L 2356 3500 
L 2356 3053 
L 1172 3053 
L 1172 1153 
Q 1172 725 1289 603 
Q 1406 481 1766 481 
L 2356 481 
L 2356 0 
L 1766 0 
Q 1100 0 847 248 
Q 594 497 594 1153 
L 594 3053 
L 172 3053 
L 172 3500 
L 594 3500 
L 594 4494 
L 1172 4494 
z
" transform="scale(0.015625)"/>
      <path id="DejaVuSans-2d" d="M 313 2009 
L 1997 2009 
L 1997 1497 
L 313 1497 
L 313 2009 
z
" transform="scale(0.015625)"/>
      <path id="DejaVuSans-68" d="M 3513 2113 
L 3513 0 
L 2938 0 
L 2938 2094 
Q 2938 2591 2744 2837 
Q 2550 3084 2163 3084 
Q 1697 3084 1428 2787 
Q 1159 2491 1159 1978 
L 1159 0 
L 581 0 
L 581 4863 
L 1159 4863 
L 1159 2956 
Q 1366 3272 1645 3428 
Q 1925 3584 2291 3584 
Q 2894 3584 3203 3211 
Q 3513 2838 3513 2113 
z
" transform="scale(0.015625)"/>
      <path id="DejaVuSans-67" d="M 2906 1791 
Q 2906 2416 2648 2759 
Q 2391 3103 1925 3103 
Q 1463 3103 1205 2759 
Q 947 2416 947 1791 
Q 947 1169 1205 825 
Q 1463 481 1925 481 
Q 2391 481 2648 825 
Q 2906 1169 2906 1791 
z
M 3481 434 
Q 3481 -459 3084 -895 
Q 2688 -1331 1869 -1331 
Q 1566 -1331 1297 -1286 
Q 1028 -1241 775 -1147 
L 775 -588 
Q 1028 -725 1275 -790 
Q 1522 -856 1778 -856 
Q 2344 -856 2625 -561 
Q 2906 -266 2906 331 
L 2906 616 
Q 2728 306 2450 153 
Q 2172 0 1784 0 
Q 1141 0 747 490 
Q 353 981 353 1791 
Q 353 2603 747 3093 
Q 1141 3584 1784 3584 
Q 2172 3584 2450 3431 
Q 2728 3278 2906 2969 
L 2906 3500 
L 3481 3500 
L 3481 434 
z
" transform="scale(0.015625)"/>
     </defs>
     <use xlink:href="#DejaVuSans-47"/>
     <use xlink:href="#DejaVuSans-6c" transform="translate(77.490234 0)"/>
     <use xlink:href="#DejaVuSans-6f" transform="translate(105.273438 0)"/>
     <use xlink:href="#DejaVuSans-62" transform="translate(166.455078 0)"/>
     <use xlink:href="#DejaVuSans-61" transform="translate(229.931641 0)"/>
     <use xlink:href="#DejaVuSans-6c" transform="translate(291.210938 0)"/>
     <use xlink:href="#DejaVuSans-20" transform="translate(318.994141 0)"/>
     <use xlink:href="#DejaVuSans-53" transform="translate(350.78125 0)"/>
     <use xlink:href="#DejaVuSans-45" transform="translate(414.257812 0)"/>
     <use xlink:href="#DejaVuSans-49" transform="translate(477.441406 0)"/>
     <use xlink:href="#DejaVuSans-52" transform="translate(506.933594 0)"/>
     <use xlink:href="#DejaVuSans-20" transform="translate(576.416016 0)"/>
     <use xlink:href="#DejaVuSans-2014" transform="translate(608.203125 0)"/>
     <use xlink:href="#DejaVuSans-20" transform="translate(708.203125 0)"/>
     <use xlink:href="#DejaVuSans-35" transform="translate(739.990234 0)"/>
     <use xlink:href="#DejaVuSans-34" transform="translate(803.613281 0)"/>
     <use xlink:href="#DejaVuSans-30" transform="translate(867.236328 0)"/>
     <use xlink:href="#DejaVuSans-20" transform="translate(930.859375 0)"/>
     <use xlink:href="#DejaVuSans-64" transform="translate(962.646484 0)"/>
     <use xlink:href="#DejaVuSans-61" transform="translate(1026.123047 0)"/>
     <use xlink:href="#DejaVuSans-79" transform="translate(1087.402344 0)"/>
     <use xlink:href="#DejaVuSans-73" transform="translate(1146.582031 0)"/>
     <use xlink:href="#DejaVuSans-2c" transform="translate(1198.681641 0)"/>
     <use xlink:href="#DejaVuSans-20" transform="translate(1230.46875 0)"/>
     <use xlink:href="#DejaVuSans-73" transform="translate(1262.255859 0)"/>
     <use xlink:href="#DejaVuSans-75" transform="translate(1314.355469 0)"/>
     <use xlink:href="#DejaVuSans-62" transform="translate(1377.734375 0)"/>
     <use xlink:href="#DejaVuSans-73" transform="translate(1441.210938 0)"/>
     <use xlink:href="#DejaVuSans-61" transform="translate(1493.310547 0)"/>
     <use xlink:href="#DejaVuSans-6d" transform="translate(1554.589844 0)"/>
     <use xlink:href="#DejaVuSans-70" transform="translate(1652.001953 0)"/>
     <use xlink:href="#DejaVuSans-6c" transform="translate(1715.478516 0)"/>
     <use xlink:href="#DejaVuSans-65" transform="translate(1743.261719 0)"/>
     <use xlink:href="#DejaVuSans-20" transform="translate(1804.785156 0)"/>
     <use xlink:href="#DejaVuSans-32" transform="translate(1836.572266 0)"/>
     <use xlink:href="#DejaVuSans-30" transform="translate(1900.195312 0)"/>
     <use xlink:href="#DejaVuSans-2c" transform="translate(1963.818359 0)"/>
     <use xlink:href="#DejaVuSans-20" transform="translate(1995.605469 0)"/>
     <use xlink:href="#DejaVuSans-3b2" transform="translate(2027.392578 0)"/>
     <use xlink:href="#DejaVuSans-3d" transform="translate(2091.210938 0)"/>
     <use xlink:href="#DejaVuSans-30" transform="translate(2175 0)"/>
     <use xlink:href="#DejaVuSans-2e" transform="translate(2238.623047 0)"/>
     <use xlink:href="#DejaVuSans-33" transform="translate(2270.410156 0)"/>
     <use xlink:href="#DejaVuSans-35" transform="translate(2334.033203 0)"/>
     <use xlink:href="#DejaVuSans-2c" transform="translate(2397.65625 0)"/>
     <use xlink:href="#DejaVuSans-20" transform="translate(2429.443359 0)"/>
     <use xlink:href="#DejaVuSans-61" transform="translate(2461.230469 0)"/>
     <use xlink:href="#DejaVuSans-69" transform="translate(2522.509766 0)"/>
     <use xlink:href="#DejaVuSans-72" transform="translate(2550.292969 0)"/>
     <use xlink:href="#DejaVuSans-20" transform="translate(2591.40625 0)"/>
     <use xlink:href="#DejaVuSans-74" transform="translate(2623.193359 0)"/>
     <use xlink:href="#DejaVuSans-6f" transform="translate(2662.402344 0)"/>
     <use xlink:href="#DejaVuSans-70" transform="translate(2723.583984 0)"/>
     <use xlink:href="#DejaVuSans-2d" transform="translate(2787.060547 0)"/>
     <use xlink:href="#DejaVuSans-31" transform="translate(2823.144531 0)"/>
     <use xlink:href="#DejaVuSans-30" transform="translate(2886.767578 0)"/>
     <use xlink:href="#DejaVuSans-30" transform="translate(2950.390625 0)"/>
     <use xlink:href="#DejaVuSans-30" transform="translate(3014.013672 0)"/>
     <use xlink:href="#DejaVuSans-2c" transform="translate(3077.636719 0)"/>
     <use xlink:href="#DejaVuSans-20" transform="translate(3109.423828 0)"/>
     <use xlink:href="#DejaVuSans-73" transform="translate(3141.210938 0)"/>
     <use xlink:href="#DejaVuSans-65" transform="translate(3193.310547 0)"/>
     <use xlink:href="#DejaVuSans-65" transform="translate(3254.833984 0)"/>
     <use xlink:href="#DejaVuSans-64" transform="translate(3316.357422 0)"/>
     <use xlink:href="#DejaVuSans-20" transform="translate(3379.833984 0)"/>
     <use xlink:href="#DejaVuSans-53" transform="translate(3411.621094 0)"/>
     <use xlink:href="#DejaVuSans-68" transform="translate(3475.097656 0)"/>
     <use xlink:href="#DejaVuSans-61" transform="translate(3538.476562 0)"/>
     <use xlink:href="#DejaVuSans-6e" transform="translate(3599.755859 0)"/>
     <use xlink:href="#DejaVuSans-67" transform="translate(3663.134766 0)"/>
     <use xlink:href="#DejaVuSans-68" transform="translate(3726.611328 0)"/>
     <use xlink:href="#DejaVuSans-61" transform="translate(3789.990234 0)"/>
     <use xlink:href="#DejaVuSans-69" transform="translate(3851.269531 0)"/>
    </g>
   </g>
   <g id="legend_1">
    <g id="patch_7">
     <path d="M 617.995313 154.049375 
L 656.94375 154.049375 
Q 658.94375 154.049375 658.94375 152.049375 
L 658.94375 94.336875 
Q 658.94375 92.336875 656.94375 92.336875 
L 617.995313 92.336875 
Q 615.995313 92.336875 615.995313 94.336875 
L 615.995313 152.049375 
Q 615.995313 154.049375 617.995313 154.049375 
z
" style="fill: #ffffff; opacity: 0.8; stroke: #cccccc; stroke-linejoin: miter"/>
    </g>
    <g id="line2d_19">
     <path d="M 619.995313 100.435312 
L 629.995313 100.435312 
L 639.995313 100.435312 
" style="fill: none; stroke: #1f77b4; stroke-width: 2; stroke-linecap: square"/>
    </g>
    <g id="text_11">
     <!-- S -->
     <g transform="translate(647.995313 103.935312) scale(0.1 -0.1)">
      <use xlink:href="#DejaVuSans-53"/>
     </g>
    </g>
    <g id="line2d_20">
     <path d="M 619.995313 115.113437 
L 629.995313 115.113437 
L 639.995313 115.113437 
" style="fill: none; stroke: #9467bd; stroke-width: 2; stroke-linecap: square"/>
    </g>
    <g id="text_12">
     <!-- E -->
     <g transform="translate(647.995313 118.613437) scale(0.1 -0.1)">
      <use xlink:href="#DejaVuSans-45"/>
     </g>
    </g>
    <g id="line2d_21">
     <path d="M 619.995313 129.791562 
L 629.995313 129.791562 
L 639.995313 129.791562 
" style="fill: none; stroke: #ff7f0e; stroke-width: 2; stroke-linecap: square"/>
    </g>
    <g id="text_13">
     <!-- I -->
     <g transform="translate(647.995313 133.291562) scale(0.1 -0.1)">
      <use xlink:href="#DejaVuSans-49"/>
     </g>
    </g>
    <g id="line2d_22">
     <path d="M 619.995313 144.469687 
L 629.995313 144.469687 
L 639.995313 144.469687 
" style="fill: none; stroke: #2ca02c; stroke-width: 2; stroke-linecap: square"/>
    </g>
    <g id="text_14">
     <!-- R -->
     <g transform="translate(647.995313 147.969687) scale(0.1 -0.1)">
      <use xlink:href="#DejaVuSans-52"/>
     </g>
    </g>
   </g>
  </g>
  <g id="axes_2">
   <g id="patch_8">
    <path d="M 50.14375 465.913125 
L 663.94375 465.913125 
L 663.94375 264.313125 
L 50.14375 264.313125 
z
" style="fill: #ffffff"/>
   </g>
   <g id="matplotlib.axis_3">
    <g id="xtick_7">
     <g id="line2d_23">
      <g>
       <use xlink:href="#mb3253df26c" x="78.04375" y="465.913125" style="stroke: #000000; stroke-width: 0.8"/>
      </g>
     </g>
     <g id="text_15">
      <!-- 0 -->
      <g transform="translate(74.8625 480.511562) scale(0.1 -0.1)">
       <use xlink:href="#DejaVuSans-30"/>
      </g>
     </g>
    </g>
    <g id="xtick_8">
     <g id="line2d_24">
      <g>
       <use xlink:href="#mb3253df26c" x="181.377083" y="465.913125" style="stroke: #000000; stroke-width: 0.8"/>
      </g>
     </g>
     <g id="text_16">
      <!-- 100 -->
      <g transform="translate(171.833333 480.511562) scale(0.1 -0.1)">
       <use xlink:href="#DejaVuSans-31"/>
       <use xlink:href="#DejaVuSans-30" transform="translate(63.623047 0)"/>
       <use xlink:href="#DejaVuSans-30" transform="translate(127.246094 0)"/>
      </g>
     </g>
    </g>
    <g id="xtick_9">
     <g id="line2d_25">
      <g>
       <use xlink:href="#mb3253df26c" x="284.710417" y="465.913125" style="stroke: #000000; stroke-width: 0.8"/>
      </g>
     </g>
     <g id="text_17">
      <!-- 200 -->
      <g transform="translate(275.166667 480.511562) scale(0.1 -0.1)">
       <use xlink:href="#DejaVuSans-32"/>
       <use xlink:href="#DejaVuSans-30" transform="translate(63.623047 0)"/>
       <use xlink:href="#DejaVuSans-30" transform="translate(127.246094 0)"/>
      </g>
     </g>
    </g>
    <g id="xtick_10">
     <g id="line2d_26">
      <g>
       <use xlink:href="#mb3253df26c" x="388.04375" y="465.913125" style="stroke: #000000; stroke-width: 0.8"/>
      </g>
     </g>
     <g id="text_18">
      <!-- 300 -->
      <g transform="translate(378.5 480.511562) scale(0.1 -0.1)">
       <use xlink:href="#DejaVuSans-33"/>
       <use xlink:href="#DejaVuSans-30" transform="translate(63.623047 0)"/>
       <use xlink:href="#DejaVuSans-30" transform="translate(127.246094 0)"/>
      </g>
     </g>
    </g>
    <g id="xtick_11">
     <g id="line2d_27">
      <g>
       <use xlink:href="#mb3253df26c" x="491.377083" y="465.913125" style="stroke: #000000; stroke-width: 0.8"/>
      </g>
     </g>
     <g id="text_19">
      <!-- 400 -->
      <g transform="translate(481.833333 480.511562) scale(0.1 -0.1)">
       <use xlink:href="#DejaVuSans-34"/>
       <use xlink:href="#DejaVuSans-30" transform="translate(63.623047 0)"/>
       <use xlink:href="#DejaVuSans-30" transform="translate(127.246094 0)"/>
      </g>
     </g>
    </g>
    <g id="xtick_12">
     <g id="line2d_28">
      <g>
       <use xlink:href="#mb3253df26c" x="594.710417" y="465.913125" style="stroke: #000000; stroke-width: 0.8"/>
      </g>
     </g>
     <g id="text_20">
      <!-- 500 -->
      <g transform="translate(585.166667 480.511562) scale(0.1 -0.1)">
       <use xlink:href="#DejaVuSans-35"/>
       <use xlink:href="#DejaVuSans-30" transform="translate(63.623047 0)"/>
       <use xlink:href="#DejaVuSans-30" transform="translate(127.246094 0)"/>
      </g>
     </g>
    </g>
    <g id="text_21">
     <!-- day -->
     <g transform="translate(347.846094 494.189687) scale(0.1 -0.1)">
      <use xlink:href="#DejaVuSans-64"/>
      <use xlink:href="#DejaVuSans-61" transform="translate(63.476562 0)"/>
      <use xlink:href="#DejaVuSans-79" transform="translate(124.755859 0)"/>
     </g>
    </g>
   </g>
   <g id="matplotlib.axis_4">
    <g id="ytick_9">
     <g id="line2d_29">
      <g>
       <use xlink:href="#m33e2c41f72" x="50.14375" y="456.749489" style="stroke: #000000; stroke-width: 0.8"/>
      </g>
     </g>
     <g id="text_22">
      <!-- 0.0 -->
      <g transform="translate(27.240625 460.548707) scale(0.1 -0.1)">
       <use xlink:href="#DejaVuSans-30"/>
       <use xlink:href="#DejaVuSans-2e" transform="translate(63.623047 0)"/>
       <use xlink:href="#DejaVuSans-30" transform="translate(95.410156 0)"/>
      </g>
     </g>
    </g>
    <g id="ytick_10">
     <g id="line2d_30">
      <g>
       <use xlink:href="#m33e2c41f72" x="50.14375" y="428.274578" style="stroke: #000000; stroke-width: 0.8"/>
      </g>
     </g>
     <g id="text_23">
      <!-- 0.5 -->
      <g transform="translate(27.240625 432.073796) scale(0.1 -0.1)">
       <use xlink:href="#DejaVuSans-30"/>
       <use xlink:href="#DejaVuSans-2e" transform="translate(63.623047 0)"/>
       <use xlink:href="#DejaVuSans-35" transform="translate(95.410156 0)"/>
      </g>
     </g>
    </g>
    <g id="ytick_11">
     <g id="line2d_31">
      <g>
       <use xlink:href="#m33e2c41f72" x="50.14375" y="399.799667" style="stroke: #000000; stroke-width: 0.8"/>
      </g>
     </g>
     <g id="text_24">
      <!-- 1.0 -->
      <g transform="translate(27.240625 403.598886) scale(0.1 -0.1)">
       <use xlink:href="#DejaVuSans-31"/>
       <use xlink:href="#DejaVuSans-2e" transform="translate(63.623047 0)"/>
       <use xlink:href="#DejaVuSans-30" transform="translate(95.410156 0)"/>
      </g>
     </g>
    </g>
    <g id="ytick_12">
     <g id="line2d_32">
      <g>
       <use xlink:href="#m33e2c41f72" x="50.14375" y="371.324756" style="stroke: #000000; stroke-width: 0.8"/>
      </g>
     </g>
     <g id="text_25">
      <!-- 1.5 -->
      <g transform="translate(27.240625 375.123975) scale(0.1 -0.1)">
       <use xlink:href="#DejaVuSans-31"/>
       <use xlink:href="#DejaVuSans-2e" transform="translate(63.623047 0)"/>
       <use xlink:href="#DejaVuSans-35" transform="translate(95.410156 0)"/>
      </g>
     </g>
    </g>
    <g id="ytick_13">
     <g id="line2d_33">
      <g>
       <use xlink:href="#m33e2c41f72" x="50.14375" y="342.849845" style="stroke: #000000; stroke-width: 0.8"/>
      </g>
     </g>
     <g id="text_26">
      <!-- 2.0 -->
      <g transform="translate(27.240625 346.649064) scale(0.1 -0.1)">
       <use xlink:href="#DejaVuSans-32"/>
       <use xlink:href="#DejaVuSans-2e" transform="translate(63.623047 0)"/>
       <use xlink:href="#DejaVuSans-30" transform="translate(95.410156 0)"/>
      </g>
     </g>
    </g>
    <g id="ytick_14">
     <g id="line2d_34">
      <g>
       <use xlink:href="#m33e2c41f72" x="50.14375" y="314.374934" style="stroke: #000000; stroke-width: 0.8"/>
      </g>
     </g>
     <g id="text_27">
      <!-- 2.5 -->
      <g transform="translate(27.240625 318.174153) scale(0.1 -0.1)">
       <use xlink:href="#DejaVuSans-32"/>
       <use xlink:href="#DejaVuSans-2e" transform="translate(63.623047 0)"/>
       <use xlink:href="#DejaVuSans-35" transform="translate(95.410156 0)"/>
      </g>
     </g>
    </g>
    <g id="ytick_15">
     <g id="line2d_35">
      <g>
       <use xlink:href="#m33e2c41f72" x="50.14375" y="285.900023" style="stroke: #000000; stroke-width: 0.8"/>
      </g>
     </g>
     <g id="text_28">
      <!-- 3.0 -->
      <g transform="translate(27.240625 289.699242) scale(0.1 -0.1)">
       <use xlink:href="#DejaVuSans-33"/>
       <use xlink:href="#DejaVuSans-2e" transform="translate(63.623047 0)"/>
       <use xlink:href="#DejaVuSans-30" transform="translate(95.410156 0)"/>
      </g>
     </g>
    </g>
    <g id="text_29">
     <!-- daily new infections (millions) -->
     <g transform="translate(21.160937 439.677187) rotate(-90) scale(0.1 -0.1)">
      <defs>
       <path id="DejaVuSans-77" d="M 269 3500 
L 844 3500 
L 1563 769 
L 2278 3500 
L 2956 3500 
L 3675 769 
L 4391 3500 
L 4966 3500 
L 4050 0 
L 3372 0 
L 2619 2869 
L 1863 0 
L 1184 0 
L 269 3500 
z
" transform="scale(0.015625)"/>
       <path id="DejaVuSans-66" d="M 2375 4863 
L 2375 4384 
L 1825 4384 
Q 1516 4384 1395 4259 
Q 1275 4134 1275 3809 
L 1275 3500 
L 2222 3500 
L 2222 3053 
L 1275 3053 
L 1275 0 
L 697 0 
L 697 3053 
L 147 3053 
L 147 3500 
L 697 3500 
L 697 3744 
Q 697 4328 969 4595 
Q 1241 4863 1831 4863 
L 2375 4863 
z
" transform="scale(0.015625)"/>
       <path id="DejaVuSans-63" d="M 3122 3366 
L 3122 2828 
Q 2878 2963 2633 3030 
Q 2388 3097 2138 3097 
Q 1578 3097 1268 2742 
Q 959 2388 959 1747 
Q 959 1106 1268 751 
Q 1578 397 2138 397 
Q 2388 397 2633 464 
Q 2878 531 3122 666 
L 3122 134 
Q 2881 22 2623 -34 
Q 2366 -91 2075 -91 
Q 1284 -91 818 406 
Q 353 903 353 1747 
Q 353 2603 823 3093 
Q 1294 3584 2113 3584 
Q 2378 3584 2631 3529 
Q 2884 3475 3122 3366 
z
" transform="scale(0.015625)"/>
      </defs>
      <use xlink:href="#DejaVuSans-64"/>
      <use xlink:href="#DejaVuSans-61" transform="translate(63.476562 0)"/>
      <use xlink:href="#DejaVuSans-69" transform="translate(124.755859 0)"/>
      <use xlink:href="#DejaVuSans-6c" transform="translate(152.539062 0)"/>
      <use xlink:href="#DejaVuSans-79" transform="translate(180.322266 0)"/>
      <use xlink:href="#DejaVuSans-20" transform="translate(239.501953 0)"/>
      <use xlink:href="#DejaVuSans-6e" transform="translate(271.289062 0)"/>
      <use xlink:href="#DejaVuSans-65" transform="translate(334.667969 0)"/>
      <use xlink:href="#DejaVuSans-77" transform="translate(396.191406 0)"/>
      <use xlink:href="#DejaVuSans-20" transform="translate(477.978516 0)"/>
      <use xlink:href="#DejaVuSans-69" transform="translate(509.765625 0)"/>
      <use xlink:href="#DejaVuSans-6e" transform="translate(537.548828 0)"/>
      <use xlink:href="#DejaVuSans-66" transform="translate(600.927734 0)"/>
      <use xlink:href="#DejaVuSans-65" transform="translate(636.132812 0)"/>
      <use xlink:href="#DejaVuSans-63" transform="translate(697.65625 0)"/>
      <use xlink:href="#DejaVuSans-74" transform="translate(752.636719 0)"/>
      <use xlink:href="#DejaVuSans-69" transform="translate(791.845703 0)"/>
      <use xlink:href="#DejaVuSans-6f" transform="translate(819.628906 0)"/>
      <use xlink:href="#DejaVuSans-6e" transform="translate(880.810547 0)"/>
      <use xlink:href="#DejaVuSans-73" transform="translate(944.189453 0)"/>
      <use xlink:href="#DejaVuSans-20" transform="translate(996.289062 0)"/>
      <use xlink:href="#DejaVuSans-28" transform="translate(1028.076172 0)"/>
      <use xlink:href="#DejaVuSans-6d" transform="translate(1067.089844 0)"/>
      <use xlink:href="#DejaVuSans-69" transform="translate(1164.501953 0)"/>
      <use xlink:href="#DejaVuSans-6c" transform="translate(1192.285156 0)"/>
      <use xlink:href="#DejaVuSans-6c" transform="translate(1220.068359 0)"/>
      <use xlink:href="#DejaVuSans-69" transform="translate(1247.851562 0)"/>
      <use xlink:href="#DejaVuSans-6f" transform="translate(1275.634766 0)"/>
      <use xlink:href="#DejaVuSans-6e" transform="translate(1336.816406 0)"/>
      <use xlink:href="#DejaVuSans-73" transform="translate(1400.195312 0)"/>
      <use xlink:href="#DejaVuSans-29" transform="translate(1452.294922 0)"/>
     </g>
    </g>
   </g>
   <g id="line2d_36">
    <path d="M 78.04375 456.747495 
L 121.44375 456.655464 
L 133.84375 456.430171 
L 142.110417 456.091149 
L 153.477083 455.272837 
L 165.877083 453.912761 
L 171.04375 452.97867 
L 175.177083 451.999703 
L 181.377083 449.900361 
L 184.477083 448.477242 
L 187.577083 446.647843 
L 189.64375 445.22723 
L 192.74375 442.644157 
L 194.810417 440.56173 
L 196.877083 438.172742 
L 198.94375 435.522183 
L 202.04375 430.925307 
L 203.077083 429.22712 
L 207.210417 421.451875 
L 210.310417 415.077994 
L 213.410417 408.066788 
L 218.577083 395.989724 
L 219.610417 393.348847 
L 221.677083 388.572123 
L 225.810417 379.049715 
L 228.910417 372.507604 
L 232.010417 366.765012 
L 235.110417 361.749384 
L 237.177083 359.230379 
L 238.210417 358.079423 
L 241.310417 355.347085 
L 242.34375 354.60537 
L 245.44375 353.066358 
L 246.477083 352.760196 
L 247.510417 352.308128 
L 251.64375 351.548759 
L 253.710417 351.303989 
L 255.777083 350.868949 
L 257.84375 350.396722 
L 258.877083 349.840436 
L 259.910417 349.584617 
L 260.94375 349.141263 
L 261.977083 348.534861 
L 265.077083 346.142057 
L 267.14375 343.691165 
L 268.177083 342.096057 
L 269.210417 340.945956 
L 272.310417 335.729523 
L 273.34375 333.735254 
L 276.44375 326.724959 
L 278.510417 321.468604 
L 280.577083 315.877897 
L 289.877083 287.925785 
L 294.010417 278.329911 
L 295.04375 276.704962 
L 296.077083 275.367552 
L 297.110417 274.228613 
L 298.14375 273.476761 
L 299.177083 273.487183 
L 300.210417 273.648864 
L 301.24375 274.417003 
L 302.277083 275.399558 
L 303.310417 276.878887 
L 305.377083 281.198588 
L 307.44375 286.734509 
L 312.610417 305.077477 
L 319.84375 331.042382 
L 321.910417 337.459032 
L 323.977083 343.61582 
L 325.010417 346.526355 
L 326.04375 348.93015 
L 327.077083 351.667785 
L 330.177083 358.924445 
L 337.410417 373.596541 
L 342.577083 383.16377 
L 344.64375 386.911751 
L 346.710417 390.618444 
L 348.777083 394.30082 
L 356.010417 406.696461 
L 358.077083 409.918511 
L 361.177083 414.584011 
L 366.34375 421.613784 
L 371.510417 427.58987 
L 373.577083 429.770251 
L 377.710417 433.702921 
L 378.74375 434.614175 
L 379.777083 435.353953 
L 381.84375 437.052254 
L 384.94375 439.315326 
L 387.010417 440.690265 
L 390.110417 442.56978 
L 392.177083 443.729336 
L 395.277083 445.307301 
L 397.34375 446.250789 
L 405.610417 449.468568 
L 413.877083 451.888594 
L 420.077083 453.239102 
L 427.310417 454.343017 
L 435.577083 455.197492 
L 441.777083 455.645744 
L 452.110417 456.119624 
L 467.610417 456.446402 
L 501.710417 456.675283 
L 636.04375 456.749489 
L 636.04375 456.749489 
" clip-path="url(#p0b9880f7fa)" style="fill: none; stroke: #dc143c; stroke-width: 1.5; stroke-linecap: square"/>
   </g>
   <g id="patch_9">
    <path d="M 50.14375 465.913125 
L 50.14375 264.313125 
" style="fill: none; stroke: #000000; stroke-width: 0.8; stroke-linejoin: miter; stroke-linecap: square"/>
   </g>
   <g id="patch_10">
    <path d="M 663.94375 465.913125 
L 663.94375 264.313125 
" style="fill: none; stroke: #000000; stroke-width: 0.8; stroke-linejoin: miter; stroke-linecap: square"/>
   </g>
   <g id="patch_11">
    <path d="M 50.14375 465.913125 
L 663.94375 465.913125 
" style="fill: none; stroke: #000000; stroke-width: 0.8; stroke-linejoin: miter; stroke-linecap: square"/>
   </g>
   <g id="patch_12">
    <path d="M 50.14375 264.313125 
L 663.94375 264.313125 
" style="fill: none; stroke: #000000; stroke-width: 0.8; stroke-linejoin: miter; stroke-linecap: square"/>
   </g>
  </g>
 </g>
 <defs>
  <clipPath id="p0e7e6e22d1">
   <rect x="50.14375" y="22.393125" width="613.8" height="201.6"/>
  </clipPath>
  <clipPath id="p0b9880f7fa">
   <rect x="50.14375" y="264.313125" width="613.8" height="201.6"/>
  </clipPath>
 </defs>
</svg>
